<?xml version="1.0" encoding="UTF-8" standalone="no"?><!DOCTYPE svg PUBLIC "-//W3C//DTD SVG 1.1//EN" "http://www.w3.org/Graphics/SVG/1.1/DTD/svg11.dtd"><svg width="100%" height="100%" viewBox="0 0 512 512" version="1.1" xmlns="http://www.w3.org/2000/svg" xmlns:xlink="http://www.w3.org/1999/xlink" xml:space="preserve" xmlns:serif="http://www.serif.com/" style="fill-rule:evenodd;clip-rule:evenodd;stroke-linejoin:round;stroke-miterlimit:1.41421;"><g><g id="analytics"><path d="M307.563,194.124l-103.125,0c-5.692,0 -10.312,4.62 -10.312,10.315l0,206.248c0,5.69 4.62,10.313 10.312,10.313l103.126,0c5.691,0 10.31,-4.623 10.31,-10.313l0,-206.248c0,-5.695 -4.619,-10.315 -10.311,-10.315Z" style="fill:#ffc107;fill-rule:nonzero;"/><path d="M204.438,297.25l-103.123,0c-5.696,0 -10.315,4.62 -10.315,10.313l0,103.124c0,5.69 4.619,10.313 10.315,10.313l103.123,0c5.695,0 10.314,-4.623 10.314,-10.313l0,-103.124c0,-5.693 -4.619,-10.313 -10.314,-10.313Z" style="fill:#ffc107;fill-rule:nonzero;"/><path d="M410.687,91l-103.124,0c-5.696,0 -10.315,4.619 -10.315,10.316l0,309.371c0,5.69 4.619,10.313 10.315,10.313l103.124,0c5.694,0 10.313,-4.623 10.313,-10.313l0,-309.371c0.001,-5.697 -4.619,-10.316 -10.313,-10.316Z" style="fill:#ffa000;fill-rule:nonzero;"/></g><path d="M512,256c0,-70.7 -28.7,-134.7 -75,-181c-46.3,-46.3 -110.3,-75 -181,-75c-63,0 -120.5,22.8 -165.1,60.6l-0.1,-0.1c-5.5,4.6 -10.8,9.4 -15.8,14.5c-5,5.1 -9.9,10.3 -14.5,15.8l0.1,0.1c-37.8,44.6 -60.6,102.1 -60.6,165.1c0,70.7 28.7,134.7 75,181c46.3,46.3 110.3,75 181,75c63,0 120.5,-22.8 165.2,-60.6l0.1,0.1c5.5,-4.6 10.7,-9.5 15.8,-14.5c5,-5 9.9,-10.3 14.5,-15.8l-0.1,-0.1c37.7,-44.5 60.5,-102.1 60.5,-165.1Zm-256,-213.1c58.9,0 112.1,23.9 150.7,62.4c38.6,38.6 62.4,91.9 62.4,150.7c0,51.1 -18.1,98 -48.1,134.8l-299.8,-299.9c36.8,-30 83.7,-48 134.8,-48Zm0,426.2c-58.9,0 -112.1,-23.9 -150.7,-62.4c-38.6,-38.6 -62.4,-91.8 -62.4,-150.7c0,-51.1 18,-98 48.1,-134.8l299.8,299.8c-36.8,30.1 -83.7,48.1 -134.8,48.1Z" style="fill:#ec1c24;"/></g></svg>