<?xml version="1.0" encoding="UTF-8" standalone="no"?><!DOCTYPE svg PUBLIC "-//W3C//DTD SVG 1.1//EN" "http://www.w3.org/Graphics/SVG/1.1/DTD/svg11.dtd"><svg width="100%" height="100%" viewBox="0 0 464 100" version="1.1" xmlns="http://www.w3.org/2000/svg" xmlns:xlink="http://www.w3.org/1999/xlink" xml:space="preserve" xmlns:serif="http://www.serif.com/" style="fill-rule:evenodd;clip-rule:evenodd;stroke-linejoin:round;stroke-miterlimit:1.41421;"><g><path d="M0,1.395c0,-0.93 0.465,-1.395 1.395,-1.395l50.209,0c3.347,0 6.439,0.558 9.275,1.674c2.836,1.115 5.3,2.719 7.392,4.811c2.092,2.092 3.742,4.626 4.951,7.601c1.208,2.976 1.813,6.323 1.813,10.042c0,5.021 -0.419,8.996 -1.255,11.925c-0.837,2.929 -1.79,5.16 -2.859,6.695c-1.07,1.534 -2.023,2.557 -2.86,3.068c-0.836,0.511 -1.255,0.906 -1.255,1.185c0,0.465 0.721,1.442 2.162,2.929c1.441,1.488 3.045,3.208 4.812,5.161c0.65,0.836 1.232,1.813 1.743,2.929c0.511,1.115 0.953,2.254 1.325,3.417c0.372,1.162 0.628,2.324 0.767,3.486c0.14,1.163 0.209,2.162 0.209,2.999c0,4.463 -0.418,8.647 -1.255,12.552c-0.837,3.905 -2.301,7.299 -4.393,10.182c-2.092,2.882 -4.858,5.16 -8.299,6.834c-3.44,1.673 -7.81,2.51 -13.11,2.51l-49.372,0c-0.93,0 -1.395,-0.465 -1.395,-1.395l0,-97.21Zm20.223,79.079c0,0.93 0.465,1.395 1.395,1.395l29.428,0c1.581,0 2.882,-0.419 3.905,-1.255c1.023,-0.837 1.86,-1.883 2.511,-3.138c0.651,-1.256 1.092,-2.581 1.325,-3.975c0.232,-1.395 0.348,-2.604 0.348,-3.627c0,-2.138 -0.255,-3.928 -0.767,-5.369c-0.511,-1.441 -1.162,-2.58 -1.952,-3.417c-0.791,-0.837 -1.674,-1.418 -2.65,-1.744c-0.977,-0.325 -1.883,-0.488 -2.72,-0.488l-29.428,0c-0.93,0 -1.395,0.465 -1.395,1.395l0,20.223Zm0,-41.841c0,0.93 0.465,1.395 1.395,1.395l24.128,0c3.719,0 6.369,-0.814 7.95,-2.441c1.581,-1.627 2.371,-4.579 2.371,-8.856c0,-3.998 -1.023,-6.764 -3.068,-8.299c-2.046,-1.534 -4.463,-2.301 -7.253,-2.301l-24.128,0c-0.93,0 -1.395,0.465 -1.395,1.395l0,19.107Z" style="fill:#fff;fill-rule:nonzero;"/><path d="M88.285,1.395l0,97.21c0,0.93 0.464,1.395 1.394,1.395l17.434,0c0.93,0 1.395,-0.465 1.395,-1.395l0,-34.17c0,-0.93 0.465,-1.395 1.394,-1.395l17.016,0c3.998,0.558 6.648,3.441 7.95,8.648l8.647,24.407c0.186,0.651 0.604,1.464 1.255,2.441c0.651,0.976 1.255,1.464 1.813,1.464l19.247,0c0.558,0 0.837,-0.232 0.837,-0.697c0,-0.186 -0.256,-0.581 -0.767,-1.186c-0.512,-0.604 -0.86,-1.278 -1.046,-2.022l-7.671,-23.571c-0.744,-2.231 -1.558,-4.393 -2.441,-6.485c-0.883,-2.092 -2.394,-4.533 -4.533,-7.322c-0.093,-0.186 -0.139,-0.372 -0.139,-0.558c0,-0.279 0.069,-0.511 0.209,-0.697c0.139,-0.186 0.256,-0.326 0.349,-0.419c2.417,-1.301 4.323,-2.719 5.718,-4.254c1.395,-1.534 2.743,-3.231 4.045,-5.09c1.952,-3.719 2.928,-9.67 2.928,-17.852l0,-3.208c-0.279,-8.833 -2.51,-15.435 -6.694,-19.805c-2.418,-2.51 -4.882,-4.277 -7.392,-5.3c-2.511,-1.023 -5.067,-1.534 -7.671,-1.534l-51.883,0c-0.93,0 -1.394,0.465 -1.394,1.395Zm48.953,16.736c2.046,0.279 3.813,1.953 5.3,5.021c0.465,0.93 0.767,1.929 0.907,2.999c0.139,1.069 0.209,2.254 0.209,3.556c0,2.604 -0.349,4.975 -1.046,7.113c-0.697,2.139 -1.697,3.766 -2.999,4.882c-1.58,1.301 -3.021,1.952 -4.323,1.952l-25.244,0c-1.023,0 -1.534,-0.465 -1.534,-1.395l0,-22.733c0,-0.93 0.465,-1.395 1.394,-1.395l27.336,0Z" style="fill:#fff;fill-rule:nonzero;"/><path d="M176.848,85.356c0,1.766 0.395,3.51 1.185,5.23c0.791,1.72 1.837,3.277 3.139,4.672c1.301,1.395 2.789,2.534 4.463,3.417c1.673,0.883 3.347,1.325 5.021,1.325l53.974,0c0.93,0 1.395,-0.465 1.395,-1.395l0,-15.341c0,-0.93 -0.465,-1.395 -1.395,-1.395l-46.164,0c-0.93,0 -1.395,-0.465 -1.395,-1.395l0,-20.223c0,-0.93 0.465,-1.395 1.395,-1.395l42.817,0c0.93,0 1.395,-0.465 1.395,-1.394l0,-16.039c0,-0.93 -0.465,-1.395 -1.395,-1.395l-42.817,0c-0.93,0 -1.395,-0.465 -1.395,-1.395l0,-18.968c0,-1.023 0.465,-1.534 1.395,-1.534l46.164,0c0.93,0 1.395,-0.465 1.395,-1.395l0,-15.341c0,-0.93 -0.604,-1.395 -1.813,-1.395l-47.28,0c-6.509,0 -11.483,1.976 -14.924,5.927c-3.44,3.952 -5.16,9.089 -5.16,15.412l0,64.017Z" style="fill:#fff;fill-rule:nonzero;"/><path d="M275.732,1.255c-0.279,-0.837 -0.883,-1.255 -1.813,-1.255l-18.27,0c-0.651,0 -0.977,0.279 -0.977,0.837l28.034,90.934c1.115,3.626 3.184,5.904 6.206,6.834c3.022,0.93 7.183,1.395 12.483,1.395c5.114,0 9.158,-0.465 12.134,-1.395c2.975,-0.93 5.021,-3.208 6.136,-6.834l28.313,-90.934c0,-0.558 -0.372,-0.837 -1.116,-0.837l-18.131,0c-0.93,0 -1.534,0.465 -1.813,1.395l-23.989,77.963c-0.558,1.674 -1.069,2.511 -1.534,2.511c-0.465,0 -0.791,-0.163 -0.977,-0.488c-0.186,-0.326 -0.418,-1 -0.697,-2.023l-23.989,-78.103Z" style="fill:#fff;fill-rule:nonzero;"/><path d="M356.625,1.395l0,97.21c0,0.93 0.465,1.395 1.395,1.395l17.433,0c0.93,0 1.395,-0.465 1.395,-1.395l0,-97.21c0,-0.93 -0.465,-1.395 -1.395,-1.395l-17.433,0c-0.93,0 -1.395,0.465 -1.395,1.395Z" style="fill:#fff;fill-rule:nonzero;"/><path d="M430.404,58.438c2.325,0 4.347,0.209 6.067,0.628c1.721,0.418 3.046,1.139 3.975,2.161c1.116,1.302 1.767,2.766 1.953,4.394c0.186,1.627 0.279,3.184 0.279,4.672c0,1.023 -0.047,1.999 -0.14,2.929c-0.093,0.93 -0.372,1.906 -0.836,2.929c-0.465,1.115 -1.209,2.347 -2.232,3.696c-1.023,1.348 -2.232,2.022 -3.626,2.022l-44.91,0c-0.929,0 -1.394,0.465 -1.394,1.395l0,15.341c0,0.93 0.465,1.395 1.394,1.395l50.768,0c2.045,0 4.207,-0.628 6.485,-1.883c2.278,-1.255 4.207,-2.534 5.788,-3.835c5.207,-4.556 8.182,-11.065 8.926,-19.526c0.186,-0.744 0.279,-1.534 0.279,-2.371c0,-0.93 0,-1.906 0,-2.929c0,-2.138 -0.14,-4.37 -0.418,-6.694c-0.279,-2.325 -0.768,-4.557 -1.465,-6.695c-0.697,-2.139 -1.581,-4.138 -2.65,-5.997c-1.069,-1.86 -2.394,-3.441 -3.975,-4.742c-2.696,-2.232 -5.625,-3.743 -8.786,-4.533c-3.162,-0.79 -6.184,-1.186 -9.066,-1.186l-15.621,0c-2.138,0 -4.114,-0.092 -5.927,-0.278c-1.813,-0.186 -3.231,-0.791 -4.254,-1.814c-1.116,-1.208 -1.766,-2.603 -1.952,-4.184c-0.186,-1.58 -0.279,-3.114 -0.279,-4.602c0,-0.93 0.046,-1.86 0.139,-2.79c0.093,-0.929 0.372,-1.859 0.837,-2.789c0.465,-1.023 1.232,-2.115 2.301,-3.278c1.069,-1.162 2.255,-1.743 3.557,-1.743l40.306,0c0.93,0 1.395,-0.465 1.395,-1.395l0,-15.341c0,-0.93 -0.465,-1.395 -1.395,-1.395l-46.164,0c-2.232,0 -4.51,0.604 -6.834,1.813c-2.325,1.209 -4.277,2.464 -5.858,3.766c-5.393,4.463 -8.415,10.739 -9.065,18.828c-0.186,0.837 -0.279,1.674 -0.279,2.511c0,0.837 0,1.72 0,2.65c0,2.138 0.162,4.3 0.488,6.485c0.325,2.185 0.837,4.324 1.534,6.416c0.697,2.092 1.581,4.044 2.65,5.857c1.069,1.813 2.394,3.371 3.975,4.673c2.696,2.138 5.695,3.579 8.996,4.323c3.3,0.744 6.392,1.116 9.274,1.116l15.76,0Z" style="fill:#fff;fill-rule:nonzero;"/></g></svg>