<?xml version="1.0" encoding="UTF-8" standalone="no"?><!DOCTYPE svg PUBLIC "-//W3C//DTD SVG 1.1//EN" "http://www.w3.org/Graphics/SVG/1.1/DTD/svg11.dtd"><svg width="100%" height="100%" viewBox="0 0 512 512" version="1.1" xmlns="http://www.w3.org/2000/svg" xmlns:xlink="http://www.w3.org/1999/xlink" xml:space="preserve" xmlns:serif="http://www.serif.com/" style="fill-rule:evenodd;clip-rule:evenodd;stroke-linejoin:round;stroke-miterlimit:1.41421;"><g><path id="f_1_" d="M281.781,421l0,-144.375l61.875,0l10.313,-61.875l-72.188,0l0,-30.938c0,-20.625 10.333,-30.937 30.938,-30.937l30.937,0l0,-61.875c-10.312,0 -33.412,0 -51.562,0c-51.563,0 -72.188,30.938 -72.188,82.5l0,41.25l-61.875,0l0,61.875l61.875,0l0,144.375l61.875,0Z" style="fill:#3b5998;fill-rule:nonzero;"/><path d="M512,256c0,-70.7 -28.7,-134.7 -75,-181c-46.3,-46.3 -110.3,-75 -181,-75c-63,0 -120.5,22.8 -165.1,60.6l-0.1,-0.1c-5.5,4.6 -10.8,9.4 -15.8,14.5c-5,5.1 -9.9,10.3 -14.5,15.8l0.1,0.1c-37.8,44.6 -60.6,102.1 -60.6,165.1c0,70.7 28.7,134.7 75,181c46.3,46.3 110.3,75 181,75c63,0 120.5,-22.8 165.2,-60.6l0.1,0.1c5.5,-4.6 10.7,-9.5 15.8,-14.5c5,-5 9.9,-10.3 14.5,-15.8l-0.1,-0.1c37.7,-44.5 60.5,-102.1 60.5,-165.1Zm-256,-213.1c58.9,0 112.1,23.9 150.7,62.4c38.6,38.6 62.4,91.9 62.4,150.7c0,51.1 -18.1,98 -48.1,134.8l-299.8,-299.9c36.8,-30 83.7,-48 134.8,-48Zm0,426.2c-58.9,0 -112.1,-23.9 -150.7,-62.4c-38.6,-38.6 -62.4,-91.8 -62.4,-150.7c0,-51.1 18,-98 48.1,-134.8l299.8,299.8c-36.8,30.1 -83.7,48.1 -134.8,48.1Z" style="fill:#ec1c24;"/></g></svg>