<?xml version="1.0" ?><svg height="512" id="Layer_1" version="1.1" viewBox="0 0 512 512" width="512" xml:space="preserve" xmlns="http://www.w3.org/2000/svg" xmlns:cc="http://creativecommons.org/ns#" xmlns:dc="http://purl.org/dc/elements/1.1/" xmlns:inkscape="http://www.inkscape.org/namespaces/inkscape" xmlns:rdf="http://www.w3.org/1999/02/22-rdf-syntax-ns#" xmlns:sodipodi="http://sodipodi.sourceforge.net/DTD/sodipodi-0.dtd" xmlns:svg="http://www.w3.org/2000/svg"><defs id="defs12"/><g id="g4680"><rect height="512" id="rect2987" style="fill:#000000;fill-opacity:1;fill-rule:nonzero;stroke:none" width="512" x="0" y="0"/><path d="m 111.79736,239.16397 c -0.6349,0 6.9648,16.0849 7.1754,16.0849 16.5923,29.59653 48.5662,48.00111 102.5163,53.08095 -7.7005,5.74578 -16.9495,16.65889 -18.2325,29.25392 -9.6792,6.14475 -29.1486,8.17965 -44.2783,3.49284 -21.2122,-6.58524 -29.3311,-47.84537 -61.087103,-41.96463 -6.87,1.26663 -5.5056,5.72651 0.436,9.5145 9.685003,6.15068 18.790303,13.85571 25.808503,30.25357 5.4047,12.57871 16.7509,35.07385 52.6331,35.07385 14.228,0 24.2082,-1.69228 24.2082,-1.69228 0,0 0.2684,32.13719 0.2684,44.62838 0,14.41784 -19.7913,18.4743 -19.7913,25.40215 0,2.73792 6.557,2.99748 11.8163,2.99748 10.4015,0 32.0393,-8.53709 32.0393,-23.50815 0,-11.88903 0.1988,-51.89738 0.1988,-58.89494 0,-15.28994 8.3429,-20.14136 8.3429,-20.14136 0,0 1.0322,81.66596 -1.989,92.61764 -3.5551,12.86792 -9.9669,11.04067 -9.9669,16.78643 0,8.54747 26.0518,2.08682 34.6883,-16.66036 6.6697,-14.59137 3.7524,-94.70743 3.7524,-94.70743 l 7.1162,-0.14831 c 0,0 0.4018,36.67419 0.1542,53.44729 -0.2491,17.36191 -1.4505,39.3157 9.0414,49.66818 6.8937,6.80327 29.2287,18.76054 29.2287,7.83703 0,-6.34349 -12.2376,-11.5494 -12.2376,-28.71107 v -79.0022 c 9.78,0 8.3087,25.96575 8.3087,25.96575 l 0.7104,48.27846 c 0,0 -2.155,17.58141 19.3628,24.9305 7.5952,2.62223 23.8151,3.31041 24.5879,-1.05454 0.7682,-4.38868 -19.5556,-10.9146 -19.7424,-24.5419 -0.1241,-8.29386 0.3826,-13.1438 0.3826,-49.24252 0,-36.10021 -4.9389,-49.43681 -22.1303,-60.06665 53.0335,-5.34976 85.8707,-18.25329 101.8622,-52.78282 1.2429,0.0253 6.5229,-16.12792 5.8347,-16.12792 3.5863,-13.03849 5.5411,-28.46339 5.9031,-46.72262 -0.088,-49.53915 -24.2023,-67.05087 -28.8342,-75.27055 6.8284,-37.507723 -1.1466,-54.556693 -4.847,-60.415183 -13.6704,-4.77579 -47.5444,12.29246 -66.0646,24.30905 -30.1571,-8.66168 -93.9436,-7.83556 -117.864,2.23512 -44.1315,-31.05892 -67.484,-26.29797 -67.484,-26.29797 0,0 -15.0897,26.57682 -3.9868,65.472773 -14.5185,18.19248 -25.3442,31.05596 -25.3442,65.16724 0.014,19.24109 2.3166,36.43984 7.5034,51.4554 z" id="path9-5" style="fill:#ffffff"/></g></svg>