<?xml version="1.0" encoding="UTF-8" standalone="no"?><!DOCTYPE svg PUBLIC "-//W3C//DTD SVG 1.1//EN" "http://www.w3.org/Graphics/SVG/1.1/DTD/svg11.dtd"><svg width="100%" height="100%" viewBox="0 0 348 75" version="1.1" xmlns="http://www.w3.org/2000/svg" xmlns:xlink="http://www.w3.org/1999/xlink" xml:space="preserve" xmlns:serif="http://www.serif.com/" style="fill-rule:evenodd;clip-rule:evenodd;stroke-linejoin:round;stroke-miterlimit:1.41421;"><g><path d="M0,1.046c0,-0.697 0.349,-1.046 1.046,-1.046l37.657,0c2.51,0 4.829,0.418 6.956,1.255c2.127,0.837 3.975,2.04 5.544,3.609c1.569,1.569 2.807,3.469 3.713,5.701c0.907,2.231 1.36,4.742 1.36,7.531c0,3.766 -0.314,6.747 -0.941,8.944c-0.628,2.196 -1.343,3.87 -2.145,5.021c-0.802,1.15 -1.516,1.917 -2.144,2.301c-0.628,0.383 -0.941,0.68 -0.941,0.889c0,0.349 0.54,1.081 1.621,2.197c1.081,1.115 2.284,2.406 3.609,3.87c0.488,0.628 0.924,1.36 1.307,2.197c0.384,0.836 0.715,1.691 0.994,2.562c0.279,0.872 0.471,1.744 0.575,2.615c0.105,0.872 0.157,1.622 0.157,2.249c0,3.348 -0.314,6.486 -0.941,9.415c-0.628,2.929 -1.726,5.474 -3.295,7.636c-1.569,2.161 -3.644,3.87 -6.224,5.125c-2.58,1.255 -5.858,1.883 -9.833,1.883l-37.029,0c-0.697,0 -1.046,-0.349 -1.046,-1.046l0,-72.908Zm15.167,59.31c0,0.697 0.349,1.046 1.046,1.046l22.072,0c1.185,0 2.161,-0.314 2.928,-0.942c0.767,-0.627 1.395,-1.412 1.883,-2.353c0.488,-0.942 0.82,-1.935 0.994,-2.981c0.174,-1.047 0.261,-1.953 0.261,-2.72c0,-1.604 -0.191,-2.946 -0.575,-4.027c-0.383,-1.081 -0.872,-1.935 -1.464,-2.563c-0.593,-0.628 -1.256,-1.064 -1.988,-1.308c-0.732,-0.244 -1.412,-0.366 -2.039,-0.366l-22.072,0c-0.697,0 -1.046,0.349 -1.046,1.046l0,15.168Zm0,-31.381c0,0.697 0.349,1.046 1.046,1.046l18.097,0c2.789,0 4.776,-0.61 5.962,-1.831c1.185,-1.22 1.778,-3.434 1.778,-6.642c0,-2.998 -0.767,-5.073 -2.301,-6.224c-1.534,-1.15 -3.347,-1.726 -5.439,-1.726l-18.097,0c-0.697,0 -1.046,0.349 -1.046,1.046l0,14.331Z" style="fill-rule:nonzero;"/><path d="M66.213,1.046l0,72.908c0,0.697 0.349,1.046 1.046,1.046l13.076,0c0.697,0 1.046,-0.349 1.046,-1.046l0,-25.628c0,-0.697 0.348,-1.046 1.046,-1.046l12.761,0c2.999,0.419 4.986,2.581 5.963,6.486l6.485,18.305c0.139,0.488 0.453,1.098 0.941,1.831c0.489,0.732 0.942,1.098 1.36,1.098l14.435,0c0.419,0 0.628,-0.174 0.628,-0.523c0,-0.139 -0.192,-0.436 -0.575,-0.889c-0.384,-0.453 -0.645,-0.959 -0.785,-1.517l-5.753,-17.678c-0.558,-1.673 -1.168,-3.295 -1.831,-4.864c-0.662,-1.569 -1.795,-3.399 -3.399,-5.491c-0.07,-0.14 -0.105,-0.279 -0.105,-0.419c0,-0.209 0.053,-0.383 0.157,-0.523c0.105,-0.139 0.192,-0.244 0.262,-0.314c1.813,-0.976 3.242,-2.039 4.288,-3.19c1.046,-1.151 2.058,-2.423 3.034,-3.818c1.464,-2.789 2.197,-7.252 2.197,-13.389l0,-2.406c-0.21,-6.625 -1.883,-11.576 -5.021,-14.853c-1.813,-1.883 -3.661,-3.208 -5.544,-3.975c-1.883,-0.767 -3.801,-1.151 -5.753,-1.151l-38.913,0c-0.697,0 -1.046,0.349 -1.046,1.046Zm36.716,12.552c1.534,0.21 2.859,1.465 3.975,3.766c0.348,0.697 0.575,1.447 0.68,2.249c0.104,0.802 0.157,1.691 0.157,2.667c0,1.953 -0.262,3.731 -0.785,5.335c-0.523,1.604 -1.273,2.824 -2.249,3.661c-1.185,0.976 -2.266,1.465 -3.243,1.465l-18.933,0c-0.767,0 -1.15,-0.349 -1.15,-1.046l0,-17.051c0,-0.697 0.348,-1.046 1.046,-1.046l20.502,0Z" style="fill-rule:nonzero;"/><path d="M132.636,64.017c0,1.325 0.296,2.632 0.889,3.922c0.593,1.29 1.377,2.458 2.354,3.505c0.976,1.046 2.092,1.9 3.347,2.562c1.255,0.663 2.51,0.994 3.766,0.994l40.481,0c0.697,0 1.046,-0.349 1.046,-1.046l0,-11.506c0,-0.698 -0.349,-1.046 -1.046,-1.046l-34.624,0c-0.697,0 -1.046,-0.349 -1.046,-1.046l0,-15.168c0,-0.697 0.349,-1.046 1.046,-1.046l32.113,0c0.698,0 1.046,-0.348 1.046,-1.046l0,-12.029c0,-0.697 -0.348,-1.046 -1.046,-1.046l-32.113,0c-0.697,0 -1.046,-0.349 -1.046,-1.046l0,-14.226c0,-0.767 0.349,-1.151 1.046,-1.151l34.624,0c0.697,0 1.046,-0.348 1.046,-1.046l0,-11.506c0,-0.697 -0.453,-1.046 -1.36,-1.046l-35.46,0c-4.882,0 -8.613,1.482 -11.193,4.446c-2.58,2.963 -3.87,6.816 -3.87,11.558l0,48.013Z" style="fill-rule:nonzero;"/><path d="M206.799,0.941c-0.209,-0.627 -0.662,-0.941 -1.36,-0.941l-13.703,0c-0.488,0 -0.732,0.209 -0.732,0.628l21.025,68.2c0.837,2.72 2.389,4.429 4.655,5.126c2.266,0.697 5.387,1.046 9.362,1.046c3.835,0 6.869,-0.349 9.1,-1.046c2.232,-0.697 3.766,-2.406 4.603,-5.126l21.234,-68.2c0,-0.419 -0.279,-0.628 -0.837,-0.628l-13.598,0c-0.697,0 -1.151,0.349 -1.36,1.046l-17.991,58.473c-0.419,1.255 -0.802,1.883 -1.151,1.883c-0.349,0 -0.593,-0.122 -0.732,-0.366c-0.14,-0.245 -0.314,-0.75 -0.523,-1.517l-17.992,-58.578Z" style="fill-rule:nonzero;"/><path d="M267.469,1.046l0,72.908c0,0.697 0.348,1.046 1.046,1.046l13.075,0c0.697,0 1.046,-0.349 1.046,-1.046l0,-72.908c0,-0.697 -0.349,-1.046 -1.046,-1.046l-13.075,0c-0.698,0 -1.046,0.349 -1.046,1.046Z" style="fill-rule:nonzero;"/><path d="M322.803,43.828c1.744,0 3.26,0.157 4.551,0.471c1.29,0.314 2.283,0.854 2.981,1.622c0.837,0.976 1.325,2.074 1.464,3.294c0.14,1.221 0.209,2.389 0.209,3.505c0,0.767 -0.034,1.499 -0.104,2.196c-0.07,0.698 -0.279,1.43 -0.628,2.197c-0.349,0.837 -0.906,1.761 -1.673,2.772c-0.768,1.011 -1.674,1.517 -2.72,1.517l-33.682,0c-0.698,0 -1.046,0.348 -1.046,1.046l0,11.506c0,0.697 0.348,1.046 1.046,1.046l38.075,0c1.534,0 3.156,-0.471 4.864,-1.412c1.709,-0.942 3.156,-1.9 4.341,-2.877c3.905,-3.417 6.137,-8.298 6.695,-14.644c0.139,-0.558 0.209,-1.151 0.209,-1.778c0,-0.698 0,-1.43 0,-2.197c0,-1.604 -0.105,-3.277 -0.314,-5.021c-0.209,-1.743 -0.575,-3.417 -1.098,-5.021c-0.523,-1.604 -1.186,-3.103 -1.988,-4.498c-0.802,-1.394 -1.795,-2.58 -2.981,-3.556c-2.022,-1.674 -4.219,-2.807 -6.59,-3.4c-2.371,-0.593 -4.637,-0.889 -6.799,-0.889l-11.715,0c-1.604,0 -3.086,-0.07 -4.446,-0.209c-1.36,-0.14 -2.423,-0.593 -3.19,-1.36c-0.837,-0.906 -1.325,-1.953 -1.465,-3.138c-0.139,-1.185 -0.209,-2.336 -0.209,-3.452c0,-0.697 0.035,-1.395 0.105,-2.092c0.069,-0.697 0.279,-1.395 0.627,-2.092c0.349,-0.767 0.924,-1.586 1.726,-2.458c0.802,-0.872 1.691,-1.308 2.667,-1.308l30.231,0c0.697,0 1.046,-0.348 1.046,-1.046l0,-11.506c0,-0.697 -0.349,-1.046 -1.046,-1.046l-34.624,0c-1.673,0 -3.382,0.453 -5.125,1.36c-1.744,0.906 -3.208,1.848 -4.394,2.824c-4.044,3.347 -6.311,8.054 -6.799,14.121c-0.139,0.628 -0.209,1.256 -0.209,1.883c0,0.628 0,1.29 0,1.988c0,1.604 0.122,3.225 0.366,4.864c0.244,1.639 0.628,3.242 1.151,4.811c0.523,1.57 1.185,3.034 1.987,4.394c0.802,1.36 1.796,2.528 2.981,3.504c2.023,1.604 4.272,2.685 6.747,3.243c2.476,0.558 4.794,0.836 6.956,0.836l11.82,0Z" style="fill-rule:nonzero;"/></g></svg>